<?xml version="1.0" encoding="utf-8"?>
<!-- Generator: Adobe Illustrator 19.2.0, SVG Export Plug-In . SVG Version: 6.00 Build 0)  -->
<svg version="1.1"
	 id="svg2" xmlns:cc="http://creativecommons.org/ns#" xmlns:dc="http://purl.org/dc/elements/1.1/" xmlns:inkscape="http://www.inkscape.org/namespaces/inkscape" xmlns:rdf="http://www.w3.org/1999/02/22-rdf-syntax-ns#" xmlns:sodipodi="http://sodipodi.sourceforge.net/DTD/sodipodi-0.dtd" xmlns:svg="http://www.w3.org/2000/svg"
	 xmlns="http://www.w3.org/2000/svg" xmlns:xlink="http://www.w3.org/1999/xlink" x="0px" y="0px" viewBox="0 0 500 500"
	 style="enable-background:new 0 0 500 500;" xml:space="preserve">
<style type="text/css">
	.st0{fill:#494622;}
</style>
<g id="layer1" transform="translate(0,-552.36218)">
	<path id="rect2995" class="st0" d="M50,552.4c-27.7,0-50,22.3-50,50v400c0,27.7,22.3,50,50,50h175.2v-224h-44.3v-79.2h44.3V698
		c0-36.7,17.4-94,94-94l69,0.2v76.8h-50.1c-8.2,0-19.8,4.1-19.8,21.6v46.5h71l-8.1,79.2h-62.8v224H450c27.7,0,50-22.3,50-50v-400
		c0-27.7-22.3-50-50-50H50z"/>
</g>
</svg>
