<?xml version="1.0" encoding="utf-8"?>
<!-- Generator: Adobe Illustrator 19.2.0, SVG Export Plug-In . SVG Version: 6.00 Build 0)  -->
<svg version="1.1"
	 id="svg2" xmlns:cc="http://creativecommons.org/ns#" xmlns:dc="http://purl.org/dc/elements/1.1/" xmlns:inkscape="http://www.inkscape.org/namespaces/inkscape" xmlns:rdf="http://www.w3.org/1999/02/22-rdf-syntax-ns#" xmlns:sodipodi="http://sodipodi.sourceforge.net/DTD/sodipodi-0.dtd" xmlns:svg="http://www.w3.org/2000/svg"
	 xmlns="http://www.w3.org/2000/svg" xmlns:xlink="http://www.w3.org/1999/xlink" x="0px" y="0px" viewBox="0 0 500 500"
	 style="enable-background:new 0 0 500 500;" xml:space="preserve">
<style type="text/css">
	.st0{fill:#494622;}
</style>
<g id="layer1" transform="translate(0,-552.36218)">
	<path id="rect3824" class="st0" d="M50,552.4c-27.7,0-50,22.3-50,50v400c0,27.7,22.3,50,50,50h400c27.7,0,50-22.3,50-50v-400
		c0-27.7-22.3-50-50-50H50z M380.1,601.9c33.2-0.9,68.1,33,68.1,65c0,13.2,0,40.5,0.1,62h-120l11.7,13.5h108.2
		c0.1,62.3,0.1,135.8,0.1,190.1c0,35.8-34.3,68.2-69.3,68.2c-64.5,0-218.9,0.2-262.9,0.2c-32.3,0-66.9-35-66.9-67.2
		c0-31.4,0.1-121.2,0.2-191.2h108.2l11.7-13.5H49.5c0-21.6,0.1-53.4,0.1-61.9c0-17.5,11.8-36.6,27.6-49.6v99.4h77.9V602
		C220.3,602.3,340.5,602.9,380.1,601.9z M352.8,629.5c-6.1,0-13.1,6.5-13.1,12.6c0,16.9,0,35.9,0,51.4c0,6.1,7,12.6,13.1,12.6
		c18.5,0,33,0,50.3,0c6,0,12.8-6.6,12.8-12.6v-51.4c0-6-6.8-12.6-12.8-12.6C385.1,629.5,369.4,629.5,352.8,629.5z M248.9,700
		c-56.6,0-102.4,45.5-102.4,101.7s45.8,101.7,102.4,101.7s102.4-45.5,102.4-101.7S305.5,700,248.9,700z M249,711.4
		c49.5,0,89.6,40.1,89.6,89.7s-40.1,89.7-89.6,89.7s-89.6-40.1-89.6-89.7S199.5,711.4,249,711.4z M249.8,733.2
		c-36.9,0-66.8,29.9-66.8,66.8c0,36.9,29.9,66.8,66.8,66.8s66.8-29.9,66.8-66.8C316.6,763.2,286.7,733.2,249.8,733.2z"/>
</g>
</svg>
