<?xml version="1.0" encoding="utf-8"?>
<!-- Generator: Adobe Illustrator 19.2.0, SVG Export Plug-In . SVG Version: 6.00 Build 0)  -->
<svg version="1.1"
	 id="svg2" xmlns:cc="http://creativecommons.org/ns#" xmlns:dc="http://purl.org/dc/elements/1.1/" xmlns:inkscape="http://www.inkscape.org/namespaces/inkscape" xmlns:rdf="http://www.w3.org/1999/02/22-rdf-syntax-ns#" xmlns:sodipodi="http://sodipodi.sourceforge.net/DTD/sodipodi-0.dtd" xmlns:svg="http://www.w3.org/2000/svg"
	 xmlns="http://www.w3.org/2000/svg" xmlns:xlink="http://www.w3.org/1999/xlink" x="0px" y="0px" viewBox="0 0 500 500"
	 style="enable-background:new 0 0 500 500;" xml:space="preserve">
<style type="text/css">
	.st0{fill:#494622;}
	.st1{enable-background:new    ;}
</style>
<g id="layer1" transform="translate(0,-552.36218)">
	<path id="rect2995" class="st0" d="M50,552.4c-27.7,0-50,22.3-50,50v400c0,27.7,22.3,50,50,50h400c27.7,0,50-22.3,50-50v-400
		c0-27.7-22.3-50-50-50H50z M144.5,604.2h23.5l15.9,58.7l15.2-58.7h22.6L194.9,693v60.5h-22.4V693c-2-10.7-6.5-26.4-13.7-47.2
		C154.2,631.9,149.2,618,144.5,604.2z M251.8,640.9c10.1,0,18,3.8,23.6,11.4c4.2,5.6,6.2,14.4,6.2,26.2v39c0,11.8-2,20.6-6.2,26.2
		c-5.6,7.6-13.5,11.4-23.6,11.4c-10,0-17.9-3.8-23.5-11.4c-4.3-5.6-6.3-14.4-6.3-26.2v-39c0-11.9,2-20.6,6.3-26.2
		C233.9,644.7,241.8,640.9,251.8,640.9z M298.2,642.2h20.1v82c0,4.7,0,7.2,0.2,7.8c0.4,3.1,2,4.7,4.7,4.7c4,0,8.3-3.1,12.8-9.4
		v-85.1h20.2v111.3h-20.2v-12.2c-8,9.2-15.7,13.7-23.1,13.7c-6.5,0-11-2.6-13-8.3c-1.1-3.4-1.8-8.7-1.8-16.6V642.2z M251.8,659
		c-6.5,0-9.6,5.1-9.6,15.4v46.8c0,10.3,3.1,15.4,9.6,15.4s9.6-5.1,9.6-15.4v-46.8C261.4,664.2,258.3,659,251.8,659z M243.7,771.8
		c2.5,0,5.1,0,7.6,0c2.5,0,5.1,0,7.6,0c38.8,0,77.7,0.3,116.1,4.6c17.3,1.9,31.6,14.9,35.7,32.5c5.7,25,5.7,52.3,5.7,78.1v1.1
		c0,25.4-0.1,52.3-5.8,77c-4,17.6-18.4,30.5-35.7,32.5c-38.5,4.3-77.4,4.6-116.2,4.6c-2.5,0-5,0-7.5,0c-2.5,0-5,0-7.5,0
		c-38.8,0-77.7-0.3-116.2-4.6c-17.3-1.9-31.7-14.9-35.7-32.5c-5.6-24.4-5.7-51-5.8-76.2v-1.9c0-25.8,0.1-53,5.8-78.1
		c4-17.6,18.4-30.5,35.7-32.5C166.1,772.1,205,771.8,243.7,771.8z M110.8,812.9v20.8h23.5v127.1h22.2V833.7h23.9v-20.8H110.8z
		 M258,812.9v147.9h20v-10.7c6.7,8.3,13.5,12.2,20.6,12.2c7.9,0,13.3-4.2,15.9-12.4c1.3-4.7,2-12,2-22.2v-43.8
		c0-10.4-0.7-17.7-2-22.2c-2.7-8.3-8-12.4-15.9-12.4c-7.3,0-14.2,4-20.6,11.9v-48.3H258z M362.1,849.2c-10.2,0-18.1,3.8-23.9,11.3
		c-4.2,5.6-6.2,14.2-6.2,25.9v38.6c0,11.7,2.2,20.4,6.4,25.9c5.8,7.5,13.7,11.3,24.2,11.3c10.4,0,18.6-3.9,24.2-11.9
		c2.4-3.5,4-7.5,4.7-12c0.2-2,0.4-6.4,0.4-12.8v-2.9h-20.3c0,8-0.3,12.4-0.4,13.5c-1.1,5.3-4,8-8.9,8c-6.9,0-10.2-5.1-10.2-15.3
		v-19.5h39.9v-22.8c0-11.8-2-20.4-6.2-25.9C380.1,853,372.1,849.2,362.1,849.2z M183.3,850.6v87.1c0,7.8,0.7,13,1.8,16.4
		c2,5.6,6.4,8.2,12.9,8.2c7.3,0,14.9-4.4,22.8-13.5v12h20V850.6h-20v84.2c-4.4,6.3-8.6,9.3-12.6,9.3c-2.7,0-4.2-1.6-4.7-4.7
		c-0.2-0.7-0.2-3.1-0.2-7.8v-81.1H183.3z M287.9,867.2c5.8,0,8.7,5.1,8.7,15v47c0,10-2.9,14.8-8.7,14.8c-3.3,0-6.6-1.6-9.9-4.9V872
		C281.3,868.8,284.6,867.2,287.9,867.2z M362,867.2c6.6,0,9.9,5.1,9.9,15.3v10.2h-20v-10.2C351.9,872.3,355.3,867.2,362,867.2z"/>
	<g id="形状_1_3_" transform="matrix(1.21711,0,0,1.21711,112.82456,368.85377)" class="st1">
		<g id="形状_1">
			<g id="g2991">
			</g>
		</g>
	</g>
	<g id="形状_1_2_" transform="matrix(1.21711,0,0,1.21711,-175.03531,575.68723)" class="st1">
		<g id="形状_1_1_">
			<g id="g2997">
			</g>
		</g>
	</g>
</g>
</svg>
